# xmcd
#
# Track frame offsets: 
#        150
#        13731
#        30838
#        47575
#        69856
#        85754
#        100205
#        120837
#
# Disc length: 1790 seconds
#
# Revision: 0
# Processed by: cddbd v1.5.2PL0 Copyright (c) Steve Scherf et al.
# Submitted via: ExactAudioCopy v1.3
#
DISCID=4d06fc08
DTITLE=The Black Sorrows - Crooked Little Thoughts [disk 3]
DYEAR=2012
DGENRE=Blues Rock
TTITLE0=The Stars In The Sky
TTITLE1=Only Time Will Tell
TTITLE2=Long Cold Night
TTITLE3=The Spell Is Broken
TTITLE4=Life's Sad Parade
TTITLE5=Until The Day I Die
TTITLE6=It's Only Xmas
TTITLE7=Dustbowl Blues
EXTD=
EXTT0=
EXTT1=
EXTT2=
EXTT3=
EXTT4=
EXTT5=
EXTT6=
EXTT7=
PLAYORDER=
